<svg width="290" height="32" viewBox="0 0 290 32" fill="none" xmlns="http://www.w3.org/2000/svg">
<g clip-path="url(#clip0_1_6)">
<path d="M7.60384 25.8982C7.52856 25.8606 7.45327 25.8229 7.37799 25.7477C6.54984 25.1454 6.02284 23.9784 6.02284 22.7362V0H0V22.7362C0 25.8982 1.39278 28.8344 3.76428 30.6036C4.02778 30.7918 4.29128 30.98 4.55478 31.1306C5.75935 31.8081 7.07684 32.1846 8.39434 32.1846H37.4169V26.1241H8.39434C8.16848 26.1241 7.86734 26.0488 7.60384 25.8982Z" fill="white"/>
<path d="M151.738 26.1241H151.55C149.969 26.1241 148.727 25.4465 147.635 23.9408L133.331 4.63006C131.072 1.61864 128.061 0 124.56 0H118.085V32.1846H124.146V6.06049H124.334C125.915 6.06049 127.157 6.73806 128.249 8.24377L142.553 27.5922C144.812 30.6036 147.823 32.2222 151.324 32.2222H157.799V0H151.738V26.1241Z" fill="white"/>
<path d="M183.847 9.44834V22.7362C183.847 27.9309 187.649 32.1846 192.317 32.1846H223.297V26.1241H192.317C192.166 26.1241 191.978 26.0864 191.828 26.0488C190.698 25.71 189.908 24.0537 189.908 22.7362V19.1225H223.297V13.062H189.908V9.44834C189.908 8.13084 190.661 6.47456 191.828 6.13577C191.978 6.09813 192.129 6.06049 192.317 6.06049H223.297V0H192.317C187.612 0 183.847 4.25363 183.847 9.44834Z" fill="white"/>
<path d="M282.434 21.6822C285.972 20.5153 288.532 16.864 288.532 12.6103V9.44834C288.532 4.25363 284.73 0 280.062 0H249.082V32.1846H255.143V22.0587H275.244L282.547 32.1846H290L282.434 21.6822ZM282.509 12.6103C282.509 14.0408 281.606 15.9982 280.1 15.9982H255.143V6.06049H280.1C281.568 6.06049 282.509 8.01791 282.509 9.44834V12.6103Z" fill="white"/>
<path d="M92.4883 7.75441C92.4883 9.10955 91.6978 10.7658 90.5308 11.1423C90.3803 11.1799 90.1921 11.2175 90.0415 11.2175H65.1596C64.9714 11.2175 64.8208 11.1799 64.6703 11.1423C63.5033 10.8035 62.7128 9.10955 62.7128 7.75441V0H56.6147V7.75441C56.6147 13.0244 60.4543 17.3157 65.1596 17.3157H90.0415C94.7468 17.3157 98.5864 13.0244 98.5864 7.75441V0H92.4883V7.75441Z" fill="white"/>
<path d="M80.6309 21.0423H74.608V32.147H80.6309V21.0423Z" fill="white"/>
</g>
<defs>
<clipPath id="clip0_1_6">
<rect width="290" height="32" fill="white"/>
</clipPath>
</defs>
</svg>
