<svg width="24" height="24" viewBox="0 0 24 24" fill="none" xmlns="http://www.w3.org/2000/svg">
<mask id="mask0_11_150" style="mask-type:alpha" maskUnits="userSpaceOnUse" x="0" y="0" width="24" height="24">
<rect width="24" height="24" fill="#D9D9D9"/>
</mask>
<g mask="url(#mask0_11_150)">
<path d="M5.00125 9.00962C5.00125 8.89704 5.00125 8.80322 5.00125 8.7094C5.00125 7.38973 5.00125 6.07005 5.00125 4.74412C5.00125 4.12493 5.13254 3.99359 5.76397 3.99359C6.49544 3.99359 7.23316 3.99359 8.00213 3.99359C8.00213 3.84348 8.00213 3.70589 8.00213 3.56829C8.00838 2.63013 8.62106 2.00469 9.55884 2.00469C11.1843 1.99844 12.8098 1.99844 14.4353 2.00469C15.3731 2.00469 15.992 2.62388 15.9982 3.56204C15.9982 3.69338 15.9982 3.82472 15.9982 3.98108C16.0983 3.98733 16.1795 3.99359 16.2608 3.99359C16.9423 3.99359 17.6175 3.99359 18.2989 3.99359C18.8491 3.99359 18.9991 4.13744 18.9991 4.68157C18.9991 6.02001 18.9991 7.3522 18.9991 8.69064C18.9991 8.78446 18.9991 8.87827 18.9991 8.99711C19.0991 8.99711 19.1867 8.99711 19.2679 8.99711C19.9869 8.99711 20.7059 8.99711 21.4248 8.99711C21.8187 8.99711 22 9.17848 22 9.57251C22 13.5253 22 17.4843 22 21.4371C22 21.8311 21.8187 22 21.4186 22C20.0119 22 18.6053 22 17.1986 22C12.3784 22 7.55825 22 2.73808 22C2.63805 22 2.53177 22 2.43174 21.9937C2.20043 21.9687 2.03163 21.7999 2.00662 21.5622C2.00037 21.4934 2.00037 21.4058 2.00037 21.3183C2.00037 17.4531 2.00037 13.5816 2.00037 9.71011C2.00037 9.14721 2.13791 9.00336 2.70682 9.00336C3.37577 9.00336 4.05097 9.00336 4.71992 9.00336C4.80744 9.00962 4.88872 9.00962 5.00125 9.00962ZM15.9982 5.01931C15.9982 5.13189 15.9982 5.21945 15.9982 5.30076C15.9982 6.33273 15.9982 7.36471 15.9982 8.39668C15.9982 9.39113 15.3856 10.0041 14.3915 10.0041C12.7973 10.0041 11.2031 10.0041 9.60885 10.0041C8.61481 10.0041 8.00838 9.39113 8.00838 8.39043C8.00838 7.3522 8.00838 6.31397 8.00838 5.26949C8.00838 5.18818 8.00838 5.10687 8.00838 5.02556C7.32068 5.02556 6.67049 5.02556 6.0203 5.02556C6.0203 10.3668 6.0203 15.6831 6.0203 20.993C7.18939 20.993 8.33973 20.993 9.50883 20.993C9.50883 20.8867 9.50883 20.8054 9.50883 20.7178C9.50883 19.5233 9.50883 18.3287 9.50883 17.1278C9.50883 16.6713 9.67763 16.5086 10.134 16.5086C11.3781 16.5086 12.616 16.5086 13.8601 16.5086C14.3415 16.5086 14.504 16.6713 14.504 17.1591C14.504 18.3474 14.504 19.5358 14.504 20.7241C14.504 20.8179 14.504 20.9055 14.504 20.993C15.6919 20.993 16.8422 20.993 17.9926 20.993C17.9926 15.658 17.9926 10.3355 17.9926 5.01306C17.3236 5.01931 16.6797 5.01931 15.9982 5.01931ZM12.0033 3.00539C11.2093 3.00539 10.4091 3.00539 9.61511 3.00539C9.18373 3.00539 9.00243 3.18677 9.00243 3.61833C9.00243 5.20694 9.00243 6.7893 9.00243 8.37792C9.00243 8.82824 9.17748 9.00962 9.62136 9.00962C11.2093 9.00962 12.791 9.00962 14.379 9.00962C14.8229 9.00962 15.0042 8.83449 15.0042 8.38418C15.0042 6.80807 15.0042 5.22571 15.0042 3.6496C15.0042 3.18052 14.8354 3.01165 14.3728 3.00539C13.5788 3.00539 12.791 3.00539 12.0033 3.00539ZM3.01316 10.0166C3.01316 13.6942 3.01316 17.3467 3.01316 20.9993C3.68211 20.9993 4.3323 20.9993 4.98249 20.9993C4.98249 17.328 4.98249 13.6754 4.98249 10.0166C4.3198 10.0166 3.67586 10.0166 3.01316 10.0166ZM19.0179 10.0166C19.0179 13.7004 19.0179 17.353 19.0179 20.9993C19.6868 20.9993 20.337 20.9993 20.9872 20.9993C20.9872 17.328 20.9872 13.6754 20.9872 10.0166C20.3245 10.0166 19.6806 10.0166 19.0179 10.0166ZM10.5154 17.5281C10.5154 18.6977 10.5154 19.8485 10.5154 20.9993C11.5157 20.9993 12.5035 20.9993 13.4912 20.9993C13.4912 19.836 13.4912 18.6852 13.4912 17.5281C12.4972 17.5281 11.5157 17.5281 10.5154 17.5281Z" fill="#CCBCAE"/>
<path d="M9.00287 11.5051C9.16549 11.5051 9.33436 11.4989 9.49697 11.5051C9.80343 11.5239 9.99732 11.7303 9.99732 12.0117C9.99107 12.2869 9.80343 12.4871 9.50322 12.4996C9.16549 12.5121 8.834 12.5121 8.49627 12.4996C8.20231 12.4871 8.00842 12.2807 8.00842 12.0055C8.00842 11.7303 8.19606 11.5301 8.49001 11.5051C8.65888 11.4989 8.82775 11.5114 9.00287 11.5051Z" fill="#CCBCAE"/>
<path d="M11.9975 12.5121C11.8349 12.5121 11.666 12.5183 11.5034 12.5121C11.197 12.4933 10.9968 12.2869 11.0031 12.0055C11.0093 11.7303 11.197 11.5239 11.4972 11.5114C11.8349 11.4989 12.1664 11.4989 12.5041 11.5114C12.8043 11.5239 12.992 11.7303 12.992 12.0055C12.992 12.2807 12.8043 12.4871 12.5104 12.5058C12.3415 12.5246 12.1726 12.5121 11.9975 12.5121Z" fill="#CCBCAE"/>
<path d="M14.9797 12.5121C14.8171 12.5121 14.6482 12.5246 14.4856 12.5121C14.1917 12.4871 14.004 12.2869 14.004 12.0117C14.004 11.7365 14.1917 11.5301 14.4919 11.5176C14.8359 11.5051 15.1799 11.4989 15.5238 11.5176C15.8115 11.5301 15.9929 11.7365 15.9929 12.0055C15.9992 12.2807 15.8115 12.4871 15.5176 12.5121C15.3425 12.5246 15.1611 12.5121 14.9797 12.5121Z" fill="#CCBCAE"/>
<path d="M8.99039 15.0138C8.82778 15.0138 8.66516 15.0201 8.49629 15.0138C8.20859 15.0013 8.00845 14.7949 8.0022 14.5197C8.0022 14.2383 8.18983 14.0319 8.48379 14.0194C8.82778 14.0069 9.17177 14.0069 9.51576 14.0194C9.80972 14.0256 9.99735 14.2383 9.99735 14.5135C9.99735 14.7887 9.79721 14.9951 9.50951 15.0076C9.33438 15.0201 9.15926 15.0138 8.99039 15.0138Z" fill="#CCBCAE"/>
<path d="M12.0038 15.0138C11.835 15.0138 11.6599 15.0201 11.491 15.0138C11.2033 15.0013 11.0094 14.7887 11.0094 14.5135C11.0094 14.2383 11.2033 14.0319 11.4972 14.0256C11.835 14.0131 12.1665 14.0131 12.5042 14.0256C12.7982 14.0319 12.992 14.232 12.9983 14.5072C13.0046 14.7949 12.8044 15.0013 12.4979 15.0138C12.3291 15.0201 12.1665 15.0138 12.0038 15.0138Z" fill="#CCBCAE"/>
<path d="M15.0045 14.0194C15.1734 14.0194 15.3485 14.0131 15.5173 14.0194C15.7988 14.0319 15.9864 14.232 15.9927 14.501C15.9989 14.7699 15.8176 14.9951 15.5424 15.0076C15.1734 15.0263 14.8106 15.0263 14.4416 15.0076C14.1727 14.9951 13.9913 14.7637 14.0038 14.4947C14.01 14.2383 14.1977 14.0444 14.4604 14.0256C14.648 14.0131 14.8231 14.0194 15.0045 14.0194Z" fill="#CCBCAE"/>
<path d="M12.5034 5.5009C12.841 5.5009 13.1536 5.49465 13.4599 5.5009C13.86 5.51341 14.0976 5.8449 13.96 6.18263C13.8663 6.41405 13.6787 6.50161 13.4411 6.50786C13.1473 6.51412 12.8472 6.51412 12.5534 6.52037C12.5471 6.52037 12.5409 6.52662 12.5034 6.5579C12.5034 6.8456 12.5096 7.15206 12.5034 7.46478C12.4909 7.86507 12.1658 8.10899 11.8282 7.97764C11.5968 7.89008 11.5031 7.6962 11.4968 7.45853C11.4968 7.15832 11.4968 6.85185 11.4968 6.51412C11.1717 6.51412 10.8591 6.52037 10.5528 6.51412C10.1527 6.50161 9.90885 6.18263 10.0339 5.83864C10.1214 5.60097 10.309 5.50716 10.5465 5.50716C10.8529 5.5009 11.153 5.50716 11.4968 5.50716C11.4968 5.32578 11.4968 5.15691 11.4968 4.98804C11.4968 4.83794 11.4906 4.69409 11.4968 4.54398C11.5093 4.22501 11.7219 4.0061 12.0032 4.01236C12.2845 4.01236 12.4909 4.23126 12.5034 4.55649C12.5096 4.8567 12.5034 5.16317 12.5034 5.5009Z" fill="#CCBCAE"/>
</g>
</svg>
