<svg width="25" height="20" viewBox="0 0 25 20" fill="none" xmlns="http://www.w3.org/2000/svg">
<path d="M16.8611 10C16.8611 12.5617 14.8788 14.5833 12.5 14.5833C10.1212 14.5833 8.13892 12.5617 8.13892 10C8.13892 7.4383 10.1212 5.41667 12.5 5.41667C14.8788 5.41667 16.8611 7.4383 16.8611 10Z" stroke="#B9C5CC" stroke-width="1.5"/>
<path d="M23.1675 8.84219C23.5672 9.36226 23.7671 9.6223 23.7671 10C23.7671 10.3777 23.5672 10.6377 23.1675 11.1578C21.4636 13.3745 17.3294 18 12.5 18C7.67056 18 3.53643 13.3745 1.83253 11.1578C1.43276 10.6377 1.23287 10.3777 1.23287 10C1.23287 9.6223 1.43276 9.36226 1.83253 8.84219C3.53643 6.62553 7.67056 2 12.5 2C17.3294 2 21.4636 6.62553 23.1675 8.84219Z" stroke="#B9C5CC" stroke-width="1.5"/>
<path d="M4 1L22 19" stroke="#B9C5CC" stroke-width="1.5"/>
</svg>
