<svg width="40" height="40" viewBox="0 0 40 40" fill="none" xmlns="http://www.w3.org/2000/svg">
<circle cx="20" cy="20" r="20" fill="#CCBCAE"/>
<path fill-rule="evenodd" clip-rule="evenodd" d="M13.6198 16.4288C12.7055 16.4288 11.9644 17.17 11.9644 18.0843V23.3932C11.9644 25.161 11.9644 26.0449 12.5135 26.5941C13.0627 27.1433 13.9466 27.1433 15.7144 27.1433H24.286C26.0538 27.1433 26.9377 27.1433 27.4869 26.5941C28.036 26.0449 28.036 25.161 28.036 23.3932V18.0843C28.036 17.17 27.2949 16.4288 26.3806 16.4288C25.7535 16.4288 25.1803 16.0745 24.8999 15.5137L24.1669 14.0478C23.9249 13.5637 23.8038 13.3216 23.6111 13.1569C23.5137 13.0737 23.4041 13.006 23.2861 12.9561C23.0526 12.8573 22.782 12.8573 22.2407 12.8573H17.7597C17.2184 12.8573 16.9478 12.8573 16.7143 12.9561C16.5963 13.006 16.4867 13.0737 16.3893 13.1569C16.1966 13.3216 16.0755 13.5637 15.8335 14.0478L15.8335 14.0478L15.1005 15.5137C14.8201 16.0745 14.2469 16.4288 13.6198 16.4288ZM22.3219 20.8929C22.3219 22.175 21.2825 23.2143 20.0004 23.2143C18.7183 23.2143 17.6789 22.175 17.6789 20.8929C17.6789 19.6107 18.7183 18.5714 20.0004 18.5714C21.2825 18.5714 22.3219 19.6107 22.3219 20.8929ZM23.5719 20.8929C23.5719 22.8653 21.9729 24.4643 20.0004 24.4643C18.0279 24.4643 16.4289 22.8653 16.4289 20.8929C16.4289 18.9204 18.0279 17.3214 20.0004 17.3214C21.9729 17.3214 23.5719 18.9204 23.5719 20.8929Z" fill="white"/>
</svg>
