<svg width="24" height="24" viewBox="0 0 24 24" fill="none" xmlns="http://www.w3.org/2000/svg">
<mask id="mask0_145_1321" style="mask-type:alpha" maskUnits="userSpaceOnUse" x="0" y="0" width="24" height="24">
<rect width="24" height="24" fill="#D9D9D9"/>
</mask>
<g mask="url(#mask0_145_1321)">
<path d="M7.77772 8.74086C9.66984 7.09327 11.562 5.44568 13.4541 3.7981C15.2042 2.28517 17.6127 2.47107 19.1641 4.25265C19.8196 5.00544 20.4805 5.7645 21.136 6.51728C22.6266 8.24149 22.4898 10.6769 20.8065 12.1426C17.7042 14.844 14.6019 17.5454 11.4995 20.2468C9.93914 21.6055 7.68151 21.5309 6.15753 20.0784C4.71616 18.7084 4.5342 16.4403 5.7416 14.8375C5.87469 14.6554 6.03032 14.4868 6.20233 14.337C8.7586 12.1001 11.3142 9.87478 13.8814 7.6504C14.7967 6.85335 16.1232 6.90056 17.0361 7.73806C17.8882 8.51817 18.0488 9.85626 17.3868 10.8078C17.2598 10.9845 17.1103 11.1477 16.9445 11.2922C14.6462 13.3044 12.337 15.3041 10.0395 17.3048C9.65245 17.6418 9.16911 17.6325 8.86321 17.2812C8.55731 16.9299 8.60297 16.449 8.99 16.1119C11.2753 14.122 13.5606 12.1321 15.8397 10.1475C15.938 10.0619 16.0308 9.97002 16.1011 9.86469C16.3004 9.54777 16.2375 9.12824 15.961 8.87269C15.679 8.61087 15.2489 8.58831 14.9438 8.82091C14.9131 8.84765 14.8824 8.8744 14.8517 8.90115C12.3391 11.089 9.83264 13.2715 7.32006 15.4594C6.29413 16.3527 6.21792 17.853 7.13288 18.8541C7.97067 19.779 9.4091 19.9052 10.347 19.1216C10.8616 18.6955 11.3661 18.2453 11.876 17.8013C14.493 15.5225 17.1161 13.2383 19.7332 10.9595C20.5932 10.2106 20.8272 9.10244 20.3321 8.0997C20.2331 7.89915 20.104 7.71372 19.962 7.55062C19.2963 6.77367 18.6189 5.99579 17.9409 5.22954C17.0116 4.17471 15.5725 4.06015 14.5281 4.96953C10.6702 8.3289 6.80607 11.6936 2.94811 15.053C2.68395 15.283 2.40339 15.3949 2.04974 15.2617C1.50834 15.0493 1.36895 14.3434 1.7942 13.9511C2.08361 13.688 2.37781 13.4429 2.67268 13.1861C4.3805 11.699 6.08218 10.2173 7.77772 8.74086Z" fill="#B9C5CC"/>
</g>
</svg>
