<svg width="24" height="24" viewBox="0 0 24 24" fill="none" xmlns="http://www.w3.org/2000/svg">
<mask id="mask0_889_667" style="mask-type:alpha" maskUnits="userSpaceOnUse" x="0" y="0" width="24" height="24">
<rect width="24" height="24" fill="#D9D9D9"/>
</mask>
<g mask="url(#mask0_889_667)">
<path d="M16.4571 21.9275C15.9644 21.7466 15.7533 21.3846 15.7709 20.8597C15.7885 20.4253 15.7709 19.9728 15.7709 19.5384C15.7709 19.4841 15.7709 19.4118 15.7533 19.3394C15.4894 19.3394 15.2607 19.3394 15.0143 19.3394C14.6976 19.3394 14.3633 19.3394 14.0466 19.3394C13.6068 19.3213 13.2373 18.9412 13.2373 18.4706C13.2373 18.0181 13.5892 17.6199 14.0291 17.6199C14.5393 17.6018 15.0319 17.6199 15.5422 17.6199C15.6126 17.6199 15.6829 17.6199 15.7709 17.6199C15.7709 17.2398 15.7709 16.896 15.7709 16.534C15.7709 16.3349 15.7709 16.1177 15.7709 15.9186C15.7709 15.4118 16.1404 15.0317 16.6154 15.0317C17.0905 15.0317 17.46 15.3937 17.46 15.9186C17.4776 16.4073 17.46 16.896 17.46 17.4027C17.46 17.4751 17.46 17.5475 17.46 17.638C17.5655 17.638 17.6535 17.638 17.7591 17.638C18.2341 17.638 18.7092 17.638 19.1842 17.638C19.6065 17.6561 19.9408 17.9638 19.9936 18.3982C20.0464 18.8326 19.7824 19.2308 19.3778 19.3394C19.2898 19.3575 19.1842 19.3575 19.0787 19.3756C18.5508 19.3756 18.0406 19.3756 17.4952 19.3756C17.4952 19.4841 17.4952 19.5746 17.4952 19.6651C17.4952 20.0814 17.4776 20.4796 17.4952 20.8959C17.5128 21.4389 17.3368 21.8189 16.8266 21.9999C16.6858 21.9275 16.5802 21.9275 16.4571 21.9275Z" fill="#CCBCAE"/>
<path d="M11.7061 19.3028C11.6357 19.3028 11.5829 19.3028 11.5477 19.3028C9.85864 19.3028 8.18717 19.3028 6.4981 19.3028C5.2313 19.3028 4.12285 18.3074 4.01728 17.0947C3.92931 16.0269 4.17563 15.0495 4.79144 14.1808C5.63597 13.0224 6.76202 12.407 8.16957 12.3889C9.87623 12.3708 11.6005 12.3708 13.3071 12.3889C14.1165 12.3889 14.8555 12.6423 15.5416 13.0948C15.612 13.1491 15.6648 13.2034 15.788 13.2939C15.6824 13.3844 15.6296 13.4749 15.5416 13.5111C14.7675 13.9274 14.2924 14.5789 14.1341 15.4658C14.1165 15.5925 14.1165 15.7011 14.0989 15.8459C13.2544 15.8821 12.5506 16.226 12.0579 16.9499C11.5477 17.6739 11.4597 18.4703 11.7061 19.3028Z" fill="#CCBCAE"/>
<path d="M10.7388 10.6695C8.43391 10.6695 6.53371 8.73291 6.51611 6.34382C6.51611 3.95472 8.39872 2 10.7212 2C13.0437 2 14.9439 3.91852 14.9439 6.30762C14.9439 8.71482 13.0612 10.6514 10.7388 10.6695Z" fill="#CCBCAE"/>
</g>
</svg>
