<svg width="20" height="22" viewBox="0 0 20 22" fill="none" xmlns="http://www.w3.org/2000/svg">
<path d="M9.97366 0C10.0939 0.0988281 10.2312 0.180469 10.3342 0.292188C11.8109 1.83906 13.2833 3.39023 14.7642 4.94141C14.9231 5.10469 14.996 5.28516 14.996 5.51719C14.9917 6.77187 14.9917 8.02227 14.9917 9.27695C14.9917 9.3543 14.9917 9.43164 14.9917 9.4918C15.4124 9.64219 15.8288 9.74961 16.2151 9.93008C18.237 10.8539 19.5205 12.4094 19.8939 14.5965C20.3103 17.05 19.4947 19.0953 17.5587 20.6637C16.5972 21.4457 15.4725 21.8625 14.2362 21.9699C14.2019 21.9742 14.1676 21.9871 14.1332 22C13.8198 22 13.5022 22 13.1888 22C13.1416 21.9871 13.0944 21.9656 13.0472 21.9613C11.6778 21.8195 10.4802 21.291 9.47572 20.35C9.02929 19.9332 8.66012 19.4391 8.25232 18.9793C8.2652 18.9664 8.27379 18.9492 8.28666 18.9363C8.20081 18.9363 8.11496 18.9363 8.02911 18.9363C6.22621 18.9363 4.42331 18.9363 2.62041 18.932C2.3929 18.932 2.1611 18.9191 1.93788 18.8676C0.774579 18.6098 0.00620045 17.643 0.00190783 16.4398C-0.00238479 14.4418 0.00190783 12.4438 0.00190783 10.4457C0.0147857 7.82031 0.0147857 5.18633 0.0147857 2.55234C0.0147857 1.67578 0.341025 0.945312 1.07077 0.459766C1.39272 0.244922 1.79622 0.150391 2.1611 0C4.76672 0 7.37234 0 9.97366 0ZM9.41133 0.928125C9.32548 0.923828 9.26967 0.915234 9.21387 0.915234C7.00317 0.915234 4.79247 0.915234 2.58177 0.915234C2.41865 0.915234 2.25124 0.932422 2.09671 0.975391C1.35838 1.17734 0.933406 1.75742 0.933406 2.57812C0.929114 7.17578 0.929114 11.7734 0.937699 16.3711C0.937699 16.6332 0.993503 16.9211 1.10511 17.1574C1.4013 17.7891 1.95076 18.0254 2.62899 18.0254C4.29024 18.0211 5.94719 18.0254 7.60843 18.0254C7.67711 18.0254 7.74579 18.0254 7.84882 18.0254C7.37663 16.7707 7.28219 15.5203 7.57838 14.2227C7.48394 14.2227 7.40668 14.2227 7.32941 14.2227C6.17899 14.2227 5.02427 14.2227 3.87385 14.2227C3.77512 14.2227 3.6721 14.2141 3.57766 14.1883C3.37591 14.1281 3.25571 13.9434 3.27288 13.7285C3.28576 13.5266 3.42742 13.3633 3.62917 13.3289C3.7279 13.3117 3.82663 13.3117 3.92965 13.3117C5.16164 13.3117 6.38933 13.3117 7.62131 13.3117C7.70716 13.3117 7.78872 13.3117 7.84452 13.3117C8.12354 12.8262 8.3811 12.3707 8.65583 11.8895C8.54422 11.8895 8.46266 11.8895 8.37681 11.8895C6.89586 11.8895 5.4149 11.8895 3.93395 11.8895C3.83522 11.8895 3.73219 11.8852 3.63346 11.868C3.41883 11.8293 3.27718 11.6617 3.26859 11.4512C3.26001 11.2363 3.3802 11.0559 3.59054 11C3.69356 10.9742 3.80088 10.9656 3.90819 10.9656C5.70251 10.9656 7.50111 10.9656 9.29543 10.9656C9.38128 10.9656 9.46713 10.9656 9.54011 10.9656C10.184 10.4242 10.8794 10.016 11.6607 9.74531C12.4376 9.47461 13.2403 9.36719 14.0688 9.40586C14.0688 8.21133 14.0688 7.03398 14.0688 5.83086C13.9787 5.83086 13.9014 5.83086 13.8241 5.83086C13.0644 5.83086 12.3088 5.83516 11.5491 5.83086C10.5059 5.82227 9.75474 5.27656 9.4886 4.31836C9.4285 4.10781 9.41992 3.88008 9.41562 3.66094C9.40704 2.7543 9.41133 1.85195 9.41133 0.928125ZM13.7082 21.0891C16.6659 21.0848 19.0783 18.6699 19.0826 15.7051C19.0869 12.7402 16.6787 10.3254 13.7168 10.3168C10.7549 10.3082 8.31671 12.7445 8.32959 15.7094C8.34247 18.6785 10.7549 21.0934 13.7082 21.0891ZM10.3214 1.61133C10.3214 2.36758 10.3171 3.05938 10.3214 3.75117C10.33 4.44297 10.7936 4.90273 11.4847 4.90703C12.0685 4.91133 12.6566 4.90703 13.2403 4.90703C13.2919 4.90703 13.3434 4.89414 13.4249 4.88555C12.3904 3.78984 11.3774 2.72422 10.3214 1.61133Z" fill="#CCBCAE"/>
<path d="M6.03309 8.671C6.79288 8.671 7.54838 8.6667 8.30818 8.67529C8.69451 8.67959 8.92202 9.01475 8.7632 9.32412C8.66017 9.52607 8.47988 9.58623 8.26096 9.58623C7.60848 9.58193 6.9603 9.58623 6.30782 9.58623C5.47076 9.58623 4.6337 9.58623 3.79663 9.58623C3.50903 9.58623 3.32445 9.45303 3.27723 9.23389C3.21284 8.92451 3.4103 8.67959 3.758 8.67529C4.34609 8.6667 4.92989 8.671 5.51798 8.671C5.68968 8.671 5.86138 8.671 6.03309 8.671Z" fill="#CCBCAE"/>
<path d="M14.1763 13.8698C14.1763 14.7507 14.1763 15.6315 14.1763 16.5124C14.1763 17.2214 14.1763 17.9304 14.1763 18.6394C14.1763 18.7296 14.1677 18.8241 14.1462 18.9144C14.0947 19.1206 13.9144 19.2538 13.7084 19.2538C13.5023 19.2495 13.3263 19.112 13.2834 18.9015C13.2619 18.8026 13.2576 18.7038 13.2576 18.605C13.2576 17.1011 13.2576 15.5972 13.2576 14.0933C13.2576 14.0202 13.2576 13.9429 13.2576 13.8698C13.2362 13.8569 13.2147 13.844 13.1932 13.8312C13.1503 13.8913 13.1117 13.9601 13.0602 14.0159C12.5279 14.5874 11.9999 15.1589 11.4633 15.7261C11.3732 15.8206 11.2573 15.9022 11.1328 15.9495C10.9482 16.0183 10.7808 15.9452 10.6649 15.7862C10.5447 15.6272 10.5404 15.4511 10.6477 15.2835C10.6949 15.2062 10.7593 15.1374 10.8237 15.0687C11.6436 14.1878 12.4635 13.3069 13.2834 12.4261C13.5925 12.0952 13.8371 12.0952 14.1505 12.4304C14.9876 13.3241 15.8203 14.2222 16.6574 15.1159C16.8076 15.2749 16.9149 15.4425 16.8291 15.6745C16.7218 15.9495 16.4041 16.0569 16.1637 15.8937C16.0865 15.8421 16.0221 15.7733 15.9577 15.7046C15.434 15.146 14.9146 14.5831 14.3952 14.0202C14.3437 13.9644 14.3007 13.8999 14.2535 13.8397C14.2149 13.844 14.1934 13.8569 14.1763 13.8698Z" fill="#CCBCAE"/>
</svg>
