<svg width="18" height="20" viewBox="0 0 18 20" fill="none" xmlns="http://www.w3.org/2000/svg">
<path d="M2.76173 6.24125C2.02074 5.2523 2.7264 3.8418 3.96215 3.8418H15.0019C16.2377 3.8418 16.9433 5.2523 16.2023 6.24125L15.993 6.52063C15.4528 7.24159 15.1608 8.11821 15.1608 9.0191V15.6664C15.1608 17.5073 13.6684 18.9997 11.8275 18.9997H7.13659C5.29564 18.9997 3.80326 17.5073 3.80326 15.6664V9.0191C3.80326 8.11821 3.51127 7.24159 2.97107 6.52063L2.76173 6.24125Z" stroke="#EE2226" stroke-width="1.25"/>
<path d="M11.375 14.2623L11.375 8.57812" stroke="#EE2226" stroke-width="1.25" stroke-linecap="round" stroke-linejoin="round"/>
<path d="M7.58887 14.2623L7.58887 8.57812" stroke="#EE2226" stroke-width="1.25" stroke-linecap="round" stroke-linejoin="round"/>
<path d="M13.268 3.84211L12.7012 2.14007C12.4745 1.45927 11.8375 1 11.1199 1H7.84438C7.12682 1 6.48981 1.45927 6.26309 2.14008L5.69629 3.84211" stroke="#EE2226" stroke-width="1.25" stroke-linecap="round"/>
</svg>
