<svg width="24" height="24" viewBox="0 0 24 24" fill="none" xmlns="http://www.w3.org/2000/svg">
<mask id="mask0_102_2723" style="mask-type:alpha" maskUnits="userSpaceOnUse" x="0" y="0" width="24" height="24">
<rect width="24" height="24" fill="#D9D9D9"/>
</mask>
<g mask="url(#mask0_102_2723)">
<path d="M14.6418 22.0005H9.12498C4.13221 22.0005 1.99902 19.8673 1.99902 14.8745V9.35757C1.99902 4.36477 4.13221 2.23157 9.12498 2.23157H10.9639C11.3409 2.23157 11.6535 2.54419 11.6535 2.92118C11.6535 3.29817 11.3409 3.61079 10.9639 3.61079H9.12498C4.88618 3.61079 3.37824 5.11875 3.37824 9.35757V14.8745C3.37824 19.1133 4.88618 20.6212 9.12498 20.6212H14.6418C18.8806 20.6212 20.3886 19.1133 20.3886 14.8745V13.0355C20.3886 12.6585 20.7012 12.3459 21.0782 12.3459C21.4552 12.3459 21.7678 12.6585 21.7678 13.0355V14.8745C21.7678 19.8673 19.6346 22.0005 14.6418 22.0005Z" fill="black"/>
<path d="M8.66411 17.3479C8.10323 17.3479 7.58832 17.1456 7.21134 16.7778C6.76079 16.3272 6.5677 15.6744 6.66884 14.9848L7.06422 12.2172C7.13778 11.6839 7.48718 10.9942 7.86417 10.6172L15.1097 3.37172C16.9394 1.54195 18.7968 1.54195 20.6265 3.37172C21.6288 4.37396 22.0793 5.39458 21.9874 6.41521C21.9046 7.24275 21.4632 8.05189 20.6265 8.87943L13.381 16.125C13.004 16.5019 12.3144 16.8513 11.7811 16.9249L9.01351 17.3203C8.89398 17.3479 8.77445 17.3479 8.66411 17.3479ZM16.0843 4.34637L8.83881 11.5919C8.66411 11.7666 8.46183 12.1712 8.42505 12.4102L8.02967 15.1779C7.99289 15.4445 8.04806 15.6652 8.18598 15.8031C8.3239 15.9411 8.54458 15.9962 8.81123 15.9594L11.5789 15.5641C11.8179 15.5273 12.2317 15.325 12.3972 15.1503L19.6427 7.90477C20.2403 7.30711 20.553 6.77381 20.5989 6.27729C20.6541 5.67962 20.3415 5.04518 19.6427 4.33718C18.1715 2.866 17.1601 3.27977 16.0843 4.34637Z" fill="black"/>
<path d="M19.1006 10.1207C19.0362 10.1207 18.9719 10.1115 18.9167 10.0931C16.4985 9.41271 14.5768 7.49099 13.8963 5.07275C13.7952 4.70496 14.0067 4.32797 14.3745 4.21763C14.7423 4.11649 15.1192 4.32797 15.2204 4.69576C15.7721 6.65426 17.326 8.20819 19.2845 8.75988C19.6523 8.86102 19.8638 9.24721 19.7626 9.615C19.6799 9.92762 19.404 10.1207 19.1006 10.1207Z" fill="black"/>
</g>
</svg>
