<svg width="24" height="24" viewBox="0 0 24 24" fill="none" xmlns="http://www.w3.org/2000/svg">
<mask id="mask0_136_560" style="mask-type:alpha" maskUnits="userSpaceOnUse" x="0" y="0" width="24" height="24">
<rect width="24" height="24" fill="#D9D9D9"/>
</mask>
<g mask="url(#mask0_136_560)">
<path d="M4.76509 1.91998C8.17509 1.91998 11.5554 1.91998 14.9654 1.91998C14.9654 3.25588 14.9654 4.62147 14.9654 5.95737C14.9654 6.43235 15.2027 6.64016 15.6474 6.64016C16.9225 6.64016 18.1975 6.64016 19.4726 6.64016C19.5319 6.64016 19.6208 6.64016 19.6801 6.64016C19.6801 6.72922 19.6801 6.81828 19.6801 6.87765C19.6801 11.7166 19.6801 16.5258 19.6801 21.3647C19.6801 21.8694 19.4726 22.0772 18.9388 22.0772C14.3131 22.0772 9.68735 22.0772 5.06162 22.0772C4.52788 22.1069 4.32031 21.8991 4.32031 21.3647C4.32031 15.1305 4.32031 8.92603 4.32031 2.72152C4.32031 2.3356 4.40927 2.06842 4.76509 1.91998ZM10.3693 18.8414C10.5769 19.0492 10.7845 19.257 10.992 19.4648C11.1403 19.6132 11.3182 19.7023 11.5554 19.6429C12.0002 19.5539 12.1781 19.0195 11.852 18.6633C11.6444 18.4555 11.4368 18.2476 11.1996 18.0398C11.4072 17.832 11.6147 17.6539 11.7927 17.4461C12.0892 17.1492 12.0892 16.793 11.852 16.5555C11.6147 16.318 11.2589 16.318 10.9624 16.6149C10.7845 16.793 10.5769 17.0008 10.399 17.1789C10.0728 16.8524 9.74665 16.5258 9.45013 16.1993C9.42048 16.1696 9.42048 16.1696 9.39083 16.1399C9.45013 16.1102 9.47979 16.0508 9.53909 16.0211C10.1321 15.5758 10.399 14.8634 10.2211 14.1806C10.0432 13.4384 9.56874 12.9634 8.79779 12.8447C8.32335 12.7853 7.84892 12.815 7.37448 12.815C6.9297 12.8447 6.69248 13.0822 6.69248 13.4978C6.69248 14.1212 6.69248 14.7446 6.69248 15.3977C6.69248 16.229 6.69248 17.0602 6.69248 17.8914C6.69248 18.218 6.9297 18.4554 7.22622 18.4851C7.52274 18.5148 7.78961 18.307 7.84892 18.0101C7.87857 17.9211 7.84892 17.8617 7.84892 17.7727C7.84892 17.3274 7.84892 16.8821 7.84892 16.4071C8.41231 16.9711 8.94605 17.5055 9.47979 18.0695C9.30187 18.2476 9.12396 18.4258 8.9164 18.6039C8.64953 18.8711 8.61987 19.2273 8.85709 19.4945C9.09431 19.7617 9.47979 19.732 9.74665 19.4648C9.98387 19.257 10.1618 19.0492 10.3693 18.8414ZM11.9706 9.01509C12.2078 9.01509 12.445 9.01509 12.7119 9.01509C14.0462 9.01509 15.3806 9.01509 16.7149 9.01509C17.0411 9.01509 17.2783 8.80729 17.3376 8.48073C17.3673 8.18387 17.1597 7.91669 16.8632 7.82763C16.7742 7.79794 16.6853 7.79794 16.5963 7.79794C14.0166 7.79794 11.4368 7.79794 8.85709 7.79794C8.353 7.79794 7.81927 7.79794 7.31518 7.79794C7.04831 7.79794 6.8704 7.91669 6.75179 8.15418C6.57388 8.56979 6.8704 8.98541 7.31518 8.98541C8.88674 9.01509 10.4287 9.01509 11.9706 9.01509ZM11.9706 11.39C12.1781 11.39 12.3857 11.39 12.5933 11.39C13.9573 11.39 15.3213 11.39 16.7149 11.39C17.0411 11.39 17.2783 11.1822 17.3376 10.8557C17.3673 10.5588 17.1893 10.2916 16.8632 10.2026C16.7742 10.1729 16.6853 10.1729 16.5963 10.1729C14.0759 10.1729 11.5851 10.1729 9.06466 10.1729C8.47161 10.1729 7.90822 10.1729 7.31518 10.1729C7.04831 10.1729 6.8704 10.2916 6.75179 10.5291C6.57388 10.9447 6.8704 11.3603 7.31518 11.3603C8.88674 11.39 10.4287 11.39 11.9706 11.39ZM10.2211 6.64016C11.1996 6.64016 12.1781 6.64016 13.1567 6.64016C13.5125 6.64016 13.7793 6.40267 13.7793 6.04643C13.7793 5.71987 13.5125 5.45269 13.1567 5.45269C13.038 5.45269 12.8898 5.45269 12.7712 5.45269C10.9624 5.45269 9.15361 5.45269 7.37448 5.45269C7.10761 5.45269 6.90005 5.54175 6.75179 5.80893C6.57388 6.22455 6.8704 6.64016 7.31518 6.64016C8.2937 6.64016 9.27222 6.64016 10.2211 6.64016ZM14.9358 13.7353C15.5288 13.7353 16.0922 13.7353 16.6853 13.7353C17.0411 13.7353 17.308 13.4978 17.308 13.1415C17.308 12.7853 17.0411 12.5478 16.6556 12.5478C15.4992 12.5478 14.3724 12.5478 13.216 12.5478C12.8305 12.5478 12.5636 12.7853 12.5636 13.1415C12.5636 13.4978 12.8305 13.7353 13.216 13.7353C13.809 13.7353 14.3724 13.7353 14.9358 13.7353ZM14.9654 16.1102C15.5288 16.1102 16.1219 16.1102 16.6853 16.1102C17.0411 16.1102 17.308 15.8727 17.308 15.5165C17.308 15.1602 17.0411 14.9227 16.6556 14.9227C15.4992 14.9227 14.3724 14.9227 13.216 14.9227C12.8305 14.9227 12.5636 15.1602 12.5636 15.5165C12.5636 15.8727 12.8305 16.1102 13.216 16.1102C13.809 16.1102 14.3724 16.1102 14.9654 16.1102Z" fill="#B9C5CC"/>
<path d="M19.2653 5.45273C18.2572 5.45273 17.1897 5.45273 16.1519 5.45273C16.1519 4.4137 16.1519 3.34498 16.1519 2.33563C17.1897 3.37467 18.2275 4.4137 19.2653 5.45273Z" fill="#B9C5CC"/>
<path d="M7.87891 14.0322C8.11612 14.0322 8.32369 14.0026 8.53125 14.0322C8.82777 14.0619 9.03534 14.3291 9.03534 14.5963C9.03534 14.8932 8.82777 15.1603 8.53125 15.19C8.32369 15.2197 8.11612 15.19 7.87891 15.19C7.87891 14.8041 7.87891 14.4479 7.87891 14.0322Z" fill="#B9C5CC"/>
</g>
</svg>
