<svg width="24" height="24" viewBox="0 0 24 24" fill="none" xmlns="http://www.w3.org/2000/svg">
<mask id="mask0_102_2762" style="mask-type:alpha" maskUnits="userSpaceOnUse" x="0" y="0" width="24" height="24">
<rect width="24" height="24" fill="#D9D9D9"/>
</mask>
<g mask="url(#mask0_102_2762)">
<path d="M20.9714 12C20.9714 14.3925 20.9714 16.7581 20.9714 19.1505C20.9714 20.414 20.2274 21.4355 19.0254 21.8387C18.7107 21.9462 18.3673 22 18.0239 22C13.9889 22 9.9539 22 5.91892 22C4.31638 22 3 20.7903 3 19.2849C3 15.2796 3 11.2742 3 7.2957C3 6.73118 3.20032 6.19355 3.57234 5.73656C4.34499 4.7957 5.11765 3.88172 5.91892 2.96774C6.49126 2.32258 7.26391 2 8.17965 2C11.442 2 14.7043 2 17.9666 2C19.7123 2 20.9714 3.1828 21 4.84946C20.9714 7.24194 20.9714 9.60753 20.9714 12ZM17.8808 20.9785C18.9968 21.0591 19.884 20.2527 19.884 19.1774C19.884 14.3925 19.884 9.63441 19.884 4.84946C19.884 3.77419 19.1113 3.02151 17.9666 3.02151C14.7043 3.02151 11.4706 3.02151 8.20827 3.02151C7.55008 3.02151 7.03498 3.26344 6.63434 3.74731C5.94754 4.58064 5.23212 5.3871 4.54531 6.22043C4.23053 6.59677 4.08744 7 4.08744 7.48387C4.08744 8.37097 4.08744 9.25806 4.08744 10.1183C4.08744 13.129 4.08744 16.1398 4.08744 19.1505C4.08744 20.0376 4.60255 20.7097 5.46105 20.9247C5.77584 21.0054 6.11924 20.9785 6.46264 21.0054C6.66296 20.7634 6.83466 20.5215 7.00636 20.3064C7.43562 19.7419 8.00795 19.4731 8.75199 19.4731C11.0413 19.4731 13.3307 19.4731 15.62 19.4731C16.3641 19.4731 16.965 19.7419 17.3943 20.3333C17.566 20.5484 17.7377 20.7634 17.8808 20.9785ZM7.83625 20.9516C10.7552 20.9516 13.6169 20.9516 16.5358 20.9516C16.3355 20.629 16.0779 20.4677 15.7059 20.4677C13.3593 20.4677 10.9841 20.4677 8.63752 20.4677C8.29412 20.4677 8.03657 20.6559 7.83625 20.9516Z" fill="black"/>
<path d="M9.38167 5.70919C9.72507 5.70919 10.0399 5.70919 10.3546 5.70919C10.7267 5.70919 10.9556 5.89736 10.9556 6.19306C10.9556 6.48876 10.7267 6.70381 10.326 6.70381C9.58199 6.70381 8.80933 6.70381 8.06529 6.70381C7.97944 6.70381 7.89359 6.70381 7.77912 6.70381C7.77912 6.8651 7.77912 7.02639 7.77912 7.21456C8.00806 7.21456 8.20838 7.21456 8.43731 7.21456C8.89518 7.21456 9.32443 7.21456 9.7823 7.21456C10.4405 7.24145 10.927 7.67155 10.9556 8.28983C10.9556 8.45112 10.9556 8.63929 10.927 8.80059C10.8411 9.33822 10.3833 9.71456 9.7823 9.74145C9.63922 9.74145 9.52475 9.74145 9.35305 9.74145C9.32443 10.1447 9.35305 10.5748 8.7521 10.5479C8.40869 10.5479 8.32284 10.3597 8.23699 9.74145C7.89359 9.74145 7.55019 9.74145 7.17817 9.74145C6.86338 9.74145 6.66306 9.49951 6.66306 9.23069C6.66306 8.96188 6.86338 8.74682 7.17817 8.74682C7.2354 8.74682 7.32125 8.74682 7.37849 8.74682C8.09391 8.74682 8.80933 8.74682 9.49613 8.74682C9.58199 8.74682 9.66784 8.74682 9.81092 8.74682C9.81092 8.55865 9.81092 8.42424 9.81092 8.23607C9.2672 8.23607 8.72348 8.23607 8.17976 8.23607C7.95082 8.23607 7.75051 8.23607 7.52157 8.20919C7.03508 8.10166 6.69168 7.72532 6.66306 7.26833C6.63445 7.10704 6.63445 6.94575 6.66306 6.78446C6.69168 6.13929 7.17817 5.70919 7.86497 5.70919C7.97944 5.70919 8.12252 5.70919 8.26561 5.70919C8.26561 5.30596 8.23699 4.82209 8.80933 4.84897C9.41028 4.84897 9.35305 5.30596 9.38167 5.70919Z" fill="black"/>
<path d="M12.1862 15.2792C10.2688 15.2792 8.38012 15.2792 6.46279 15.2792C5.9763 15.2792 5.71875 15.091 5.71875 14.7684C5.71875 14.4459 5.9763 14.2577 6.46279 14.2577C10.2688 14.2577 14.0749 14.2577 17.8809 14.2577C18.3674 14.2577 18.625 14.4459 18.625 14.7684C18.625 15.091 18.3674 15.2792 17.9095 15.2792C15.9922 15.2792 14.0749 15.2792 12.1862 15.2792Z" fill="black"/>
<path d="M12.1575 11.7041C14.0749 11.7041 15.9636 11.7041 17.8809 11.7041C17.9668 11.7041 18.0812 11.7041 18.1671 11.7041C18.4246 11.7579 18.625 11.9729 18.625 12.2417C18.5963 12.4837 18.396 12.6987 18.1385 12.7256C18.0526 12.7256 17.9668 12.7256 17.8809 12.7256C14.0749 12.7256 10.2688 12.7256 6.46279 12.7256C5.9763 12.7256 5.71875 12.5643 5.71875 12.2417C5.71875 11.9192 5.9763 11.731 6.46279 11.731C8.3515 11.7041 10.2402 11.7041 12.1575 11.7041Z" fill="black"/>
<path d="M12.1289 17.8062C10.1829 17.8062 8.2656 17.8062 6.31965 17.8062C5.8904 17.8062 5.60423 17.5105 5.7187 17.161C5.77593 16.946 5.94763 16.8115 6.17657 16.7847C6.26242 16.7847 6.34827 16.7847 6.46273 16.7847C10.2688 16.7847 14.0462 16.7847 17.8522 16.7847C17.9381 16.7847 18.024 16.7847 18.1098 16.7847C18.396 16.8115 18.6249 17.0266 18.6249 17.2685C18.6249 17.5374 18.4246 17.7524 18.1098 17.7793C18.024 17.7793 17.9381 17.7793 17.8522 17.7793C15.9349 17.8062 14.0462 17.8062 12.1289 17.8062Z" fill="black"/>
<path d="M15.3909 6.62341C16.2494 6.62341 17.1079 6.62341 17.9664 6.62341C18.4529 6.62341 18.7105 6.97288 18.5388 7.34922C18.4243 7.59115 18.1954 7.64492 17.9378 7.64492C17.0221 7.64492 16.1063 7.64492 15.1906 7.64492C14.3893 7.64492 13.588 7.64492 12.7868 7.64492C12.3289 7.64492 12.0427 7.26857 12.2144 6.91911C12.3289 6.70406 12.5578 6.62341 12.8154 6.62341C13.7025 6.62341 14.5324 6.62341 15.3909 6.62341Z" fill="black"/>
<path d="M15.3913 10.1987C14.5042 10.1987 13.6457 10.1987 12.7586 10.1987C12.501 10.1987 12.3007 10.0912 12.2148 9.84926C12.129 9.63421 12.2148 9.44604 12.3865 9.31163C12.4724 9.25787 12.6155 9.2041 12.7299 9.2041C14.5042 9.2041 16.2498 9.2041 18.0241 9.2041C18.3388 9.2041 18.5964 9.41916 18.5964 9.71485C18.5964 10.0106 18.3675 10.2256 18.0241 10.2256C17.1656 10.1987 16.2784 10.1987 15.3913 10.1987Z" fill="black"/>
</g>
</svg>
