<svg width="28" height="28" viewBox="0 0 28 28" fill="none" xmlns="http://www.w3.org/2000/svg">
<mask id="mask0_92_942" style="mask-type:alpha" maskUnits="userSpaceOnUse" x="0" y="0" width="28" height="28">
<rect width="28" height="28" fill="#D9D9D9"/>
</mask>
<g mask="url(#mask0_92_942)">
<path d="M24.9999 23.273C24.8553 23.3694 24.7267 23.506 24.5741 23.5542C22.8385 24.0281 21.0949 24.4859 19.3513 24.9518C18.9977 25.0481 18.8451 24.9598 18.7487 24.6064C18.6121 24.0923 18.4755 23.5702 18.3389 23.0401C20.4119 22.4859 22.4689 21.9397 24.5339 21.3855C24.6866 21.9397 24.8392 22.4779 24.9999 23.016C24.9999 23.1044 24.9999 23.1927 24.9999 23.273Z" fill="#B9C5CC"/>
<path d="M14.0883 3C14.3053 3.08835 14.3776 3.25703 14.3695 3.48193C14.3615 3.80321 14.3695 4.1245 14.3695 4.45382C12.7706 4.45382 11.2037 4.45382 9.61279 4.45382C9.61279 4.06827 9.59672 3.69076 9.62083 3.31325C9.62886 3.2008 9.78153 3.10442 9.86991 3C11.276 3 12.6822 3 14.0883 3Z" fill="#B9C5CC"/>
<path d="M14.3776 20.5824C12.7626 20.5824 11.1957 20.5824 9.62085 20.5824C9.62085 16.0683 9.62085 11.5623 9.62085 7.04023C11.2038 7.04023 12.7786 7.04023 14.3696 7.04023C14.3696 7.21693 14.3696 7.38561 14.3696 7.53019C14.5865 7.4579 14.7874 7.36955 14.9883 7.31332C16.6596 6.86352 18.3309 6.42175 20.0022 5.97195C20.3718 5.87557 20.5244 5.96392 20.6289 6.34143C20.7735 6.90368 20.9181 7.4579 21.0708 8.02015C21.0869 8.0844 21.0949 8.14063 21.111 8.22095C19.046 8.77517 16.997 9.32135 14.916 9.87557C14.7553 9.2571 14.5865 8.63862 14.4258 8.02818C14.4097 8.02818 14.3937 8.02818 14.3776 8.03621C14.3776 12.2129 14.3776 16.3896 14.3776 20.5824Z" fill="#B9C5CC"/>
<path d="M3.00806 20.5743C3.00806 16.5502 3.00806 12.5341 3.00806 8.51001C4.96058 8.51001 6.90506 8.51001 8.85758 8.51001C8.85758 12.5341 8.85758 16.5421 8.85758 20.5743C6.9131 20.5743 4.96861 20.5743 3.00806 20.5743ZM5.92478 13.265C6.37475 13.265 6.82471 13.265 7.27467 13.265C7.63625 13.265 7.76481 13.1365 7.76481 12.7751C7.76481 11.8835 7.76481 10.9839 7.76481 10.0923C7.76481 9.73893 7.64429 9.61041 7.29075 9.60238C6.38278 9.60238 5.47482 9.60238 4.56686 9.60238C4.22135 9.60238 4.10083 9.72286 4.10083 10.0682C4.10083 10.9759 4.10083 11.8835 4.10083 12.7911C4.10083 13.1285 4.22939 13.257 4.56686 13.257C5.02486 13.265 5.47482 13.265 5.92478 13.265Z" fill="#B9C5CC"/>
<path d="M17.5755 20.1165C16.8684 17.4257 16.1774 14.751 15.4703 12.0522C17.5434 11.498 19.6004 10.9518 21.6814 10.3976C22.3805 13.0803 23.0795 15.755 23.7866 18.4618C21.7216 19.0161 19.6566 19.5622 17.5755 20.1165Z" fill="#B9C5CC"/>
<path d="M3 22.8073C4.96055 22.8073 6.90504 22.8073 8.85756 22.8073C8.85756 23.4338 8.86559 24.0442 8.85756 24.6627C8.85756 24.8635 8.71293 24.9679 8.52009 24.992C8.45581 25 8.39153 25 8.32725 25C6.72827 25 5.13733 25 3.53835 25C3.10446 25 3 24.8956 3 24.4538C3 23.9077 3 23.3615 3 22.8073Z" fill="#B9C5CC"/>
<path d="M8.8656 7.75506C6.89701 7.75506 4.96056 7.75506 3 7.75506C3.00804 7.25706 3 6.75104 3.00804 6.26108C3.01607 6.10044 3.12053 5.98799 3.28926 5.95586C3.36961 5.93979 3.458 5.93176 3.54638 5.93176C5.13733 5.93176 6.72827 5.93176 8.31118 5.93176C8.7531 5.93176 8.8656 6.04421 8.8656 6.47795C8.87363 6.89562 8.8656 7.31329 8.8656 7.75506Z" fill="#B9C5CC"/>
<path d="M9.60489 22.8073C11.2039 22.8073 12.7707 22.8073 14.3536 22.8073C14.3616 22.8474 14.3697 22.8795 14.3697 22.9117C14.3697 23.4579 14.3777 23.996 14.3697 24.5422C14.3697 24.8554 14.2331 24.992 13.9197 24.992C12.6341 24.992 11.3405 24.992 10.0549 24.992C9.74149 24.992 9.60489 24.8635 9.60489 24.5502C9.59685 23.9799 9.60489 23.4016 9.60489 22.8073Z" fill="#B9C5CC"/>
<path d="M23.9715 19.1688C24.1081 19.6829 24.2366 20.1728 24.3652 20.6789C22.2922 21.2331 20.2352 21.7793 18.1541 22.3335C18.0255 21.8355 17.897 21.3455 17.7604 20.8315C19.8254 20.2773 21.8824 19.7311 23.9715 19.1688Z" fill="#B9C5CC"/>
<path d="M9.61292 6.29322C9.61292 5.92375 9.61292 5.57836 9.61292 5.21692C11.1878 5.21692 12.7627 5.21692 14.3456 5.21692C14.3456 5.57033 14.3456 5.93178 14.3456 6.29322C12.7707 6.29322 11.2119 6.29322 9.61292 6.29322Z" fill="#B9C5CC"/>
<path d="M15.2856 11.3454C15.2213 11.0804 15.1571 10.8474 15.0928 10.5904C17.1739 10.0362 19.2228 9.49001 21.2958 8.93579C21.3601 9.18479 21.4244 9.42575 21.4967 9.69081C19.4317 10.245 17.3747 10.7912 15.2856 11.3454Z" fill="#B9C5CC"/>
<path d="M8.8576 21.3455C8.8576 21.5864 8.8576 21.8113 8.8576 22.0523C6.90508 22.0523 4.9606 22.0523 3.01611 22.0523C3.01611 21.8194 3.01611 21.5864 3.01611 21.3455C4.95256 21.3455 6.89705 21.3455 8.8576 21.3455Z" fill="#B9C5CC"/>
<path d="M14.3536 21.3455C14.3536 21.5864 14.3536 21.8113 14.3536 22.0523C12.7707 22.0523 11.1958 22.0523 9.61292 22.0523C9.61292 21.8113 9.61292 21.5864 9.61292 21.3455C11.1958 21.3455 12.7627 21.3455 14.3536 21.3455Z" fill="#B9C5CC"/>
</g>
</svg>
