<svg width="28" height="28" viewBox="0 0 28 28" fill="none" xmlns="http://www.w3.org/2000/svg">
<mask id="mask0_18_471" style="mask-type:alpha" maskUnits="userSpaceOnUse" x="0" y="0" width="28" height="28">
<rect width="28" height="28" fill="#D9D9D9"/>
</mask>
<g mask="url(#mask0_18_471)">
<path d="M15.0077 2C15.3938 2.08652 15.7974 2.15573 16.1834 2.27686C18.4822 3.03821 19.9387 5.23576 19.7632 7.64095C19.5877 9.97693 17.7627 11.9322 15.4113 12.3475C12.4633 12.8666 9.63806 10.8075 9.26955 7.8659C8.8835 5.01082 10.9366 2.41528 13.832 2.03461C13.8846 2.03461 13.9197 2 13.9724 2C14.3233 2 14.6743 2 15.0077 2Z" fill="#B9C5CC"/>
<path d="M9.93633 14.1471C9.28706 15.8428 8.84836 17.5732 8.58514 19.3555C7.2515 19.9784 6.76016 20.7917 7.04093 21.8645C7.26905 22.7989 8.14645 23.4391 9.14668 23.4218C10.1118 23.3872 10.9541 22.6777 11.112 21.7261C11.2524 20.8782 10.9015 19.84 9.62047 19.3901C9.93633 17.4002 10.4628 15.4449 11.3051 13.5588C13.3406 13.057 15.3937 13.0743 17.4468 13.4896C17.7101 14.5797 17.9733 15.6525 17.9733 16.7599C17.5872 16.9676 17.2187 17.1752 16.8502 17.3829C16.1307 17.8328 15.4639 18.3519 14.9375 19.0094C14.6041 19.442 14.3584 19.9265 14.2882 20.4975C14.1654 21.3627 14.6743 22.349 15.4464 22.747C15.6745 22.8681 15.9377 22.8162 16.0956 22.6258C16.2536 22.4182 16.2536 22.1586 16.0605 21.9683C15.9553 21.8645 15.8324 21.7953 15.7271 21.6914C15.306 21.2935 15.1832 20.8263 15.3937 20.2899C15.6394 19.6323 16.1307 19.1478 16.6923 18.7325C17.1836 18.3692 17.7276 18.0404 18.2716 17.6943C19.2367 18.6114 20.1317 19.4939 20.3773 20.809C20.5177 21.5011 20.2194 22.0029 19.5526 22.2971C19.4824 22.3317 19.4122 22.349 19.3596 22.3836C19.0963 22.5047 18.991 22.7643 19.0963 23.0238C19.2016 23.2661 19.4648 23.3872 19.7456 23.3007C21.0266 22.8854 21.6583 21.7434 21.3425 20.411C21.1494 19.5804 20.7107 18.8883 20.1668 18.2307C19.7983 17.7981 19.3947 17.4002 19.0261 17.0022C18.9735 16.4831 18.956 15.964 18.8858 15.4449C18.8156 14.9431 18.7103 14.4413 18.605 13.9049C19.6228 14.3374 20.5177 14.9085 21.2898 15.6698C23.0622 17.4002 23.9747 19.4939 23.9922 21.9683C24.0097 23.093 23.9922 24.2351 23.9922 25.3598C23.9922 25.827 23.7992 26 23.3429 26C17.4468 26 11.5507 26 5.67219 26C5.1984 26 5.02292 25.827 5.02292 25.3598C5.02292 23.9928 4.95273 22.6431 5.05802 21.2935C5.32123 18.075 6.97074 15.7044 9.84859 14.1817C9.86614 14.1644 9.88369 14.1471 9.93633 14.1471Z" fill="#B9C5CC"/>
</g>
</svg>
