<svg width="28" height="28" viewBox="0 0 28 28" fill="none" xmlns="http://www.w3.org/2000/svg">
<mask id="mask0_145_1328" style="mask-type:alpha" maskUnits="userSpaceOnUse" x="0" y="0" width="28" height="28">
<rect width="28" height="28" fill="#D9D9D9"/>
</mask>
<g mask="url(#mask0_145_1328)">
<path d="M13.0704 2C13.4164 2.05794 13.7775 2.10139 14.1235 2.18829C15.9738 2.62281 17.2676 3.95533 17.5384 5.76583C17.8693 7.98187 17.4481 10.0676 16.3048 12.0084C15.6128 13.1816 14.5597 13.9493 13.1456 14.1086C11.4607 14.3114 10.0466 13.7899 9.00863 12.4574C8.16618 11.3711 7.76 10.1255 7.53435 8.80746C7.38391 7.98187 7.29365 7.15629 7.38391 6.31622C7.54939 4.85334 8.12105 3.60772 9.44489 2.76765C10.1369 2.33313 10.9041 2.13036 11.7014 2.04345C11.7917 2.02897 11.882 2.01448 11.9572 2C12.3333 2 12.6943 2 13.0704 2Z" fill="#B29785"/>
<path d="M8.45198 13.6451C10.5431 15.8901 14.4995 15.8611 16.5605 13.6161C16.9516 13.7754 17.3428 13.9347 17.749 14.0941C18.2604 14.2824 18.787 14.4562 19.2985 14.6445C19.7799 14.8183 20.171 15.1224 20.4869 15.5569C18.0498 15.5569 16.1393 16.4839 14.9508 18.5261C13.7473 20.5684 13.9128 22.6251 15.1915 24.6384C15.011 24.6529 14.8455 24.6673 14.665 24.6963C12.7545 24.9425 10.8439 24.8267 8.94842 24.5225C7.3538 24.2763 5.77421 23.9721 4.25481 23.4652C4.10437 23.4217 3.95393 23.3638 3.8035 23.3059C3.15662 23.0596 2.96105 22.7844 3.00618 22.1037C3.05131 21.5823 3.05131 21.0608 3.14158 20.5394C3.35219 19.3517 3.5628 18.1641 3.83358 16.9764C3.93889 16.5418 4.16454 16.1363 4.37516 15.7307C4.75125 15.0645 5.39812 14.7024 6.12022 14.4562C6.90249 14.2099 7.66971 13.9347 8.45198 13.6451Z" fill="#B29785"/>
<path d="M20.1861 16.7302C22.8338 16.7447 25.0001 18.8304 25.0001 21.3795C24.985 23.9287 22.8188 26.0144 20.1711 25.9999C17.5234 25.9999 15.3571 23.9142 15.3721 21.365C15.3721 18.8014 17.5535 16.7157 20.1861 16.7302ZM19.3587 20.5684C18.9525 20.5684 18.5764 20.5539 18.2004 20.5684C18.0349 20.5684 17.8544 20.5974 17.7039 20.6698C17.3579 20.8147 17.1924 21.2057 17.2827 21.5533C17.3579 21.8865 17.6738 22.1472 18.0499 22.1617C18.4711 22.1761 18.9074 22.1617 19.3587 22.1617C19.3587 22.263 19.3587 22.3355 19.3587 22.4079C19.3587 22.741 19.3587 23.0597 19.3587 23.3928C19.3738 23.8418 19.7047 24.1749 20.156 24.1749C20.6224 24.1894 20.9834 23.8708 20.9985 23.4218C21.0135 23.1466 20.9985 22.8714 20.9985 22.5962C20.9985 22.4513 20.9985 22.3065 20.9985 22.1472C21.2392 22.1472 21.4347 22.1472 21.6454 22.1472C21.856 22.1472 22.0666 22.1472 22.2772 22.1472C22.7285 22.1327 23.0745 21.814 23.0895 21.4085C23.1196 20.974 22.8037 20.6264 22.3524 20.5684C22.1418 20.5395 21.9312 20.5539 21.7206 20.5539C21.4799 20.5539 21.2392 20.5539 21.0135 20.5539C20.9985 20.5105 20.9985 20.496 20.9985 20.496C20.9985 20.1339 20.9985 19.7573 20.9985 19.3952C20.9985 18.8883 20.6525 18.5407 20.1711 18.5407C19.6897 18.5407 19.3587 18.8883 19.3437 19.3952C19.3587 19.7718 19.3587 20.1484 19.3587 20.5684Z" fill="#B29785"/>
</g>
</svg>
