<svg width="24" height="24" viewBox="0 0 24 24" fill="none" xmlns="http://www.w3.org/2000/svg">
<mask id="mask0_136_549" style="mask-type:alpha" maskUnits="userSpaceOnUse" x="0" y="0" width="24" height="24">
<rect width="24" height="24" fill="#D9D9D9"/>
</mask>
<g mask="url(#mask0_136_549)">
<path d="M12.4224 1.92004C12.8124 2.00943 13.2178 2.06202 13.5975 2.18821C15.8554 2.92962 17.3589 5.20642 17.1793 7.5726C16.9843 10.086 15.2191 12.0789 12.833 12.4785C9.8875 12.9728 7.15242 10.8169 6.84453 7.76716C6.55204 4.87515 8.61489 2.26708 11.4321 1.95685C11.4834 1.95159 11.5296 1.93582 11.5809 1.9253C11.858 1.92004 12.1402 1.92004 12.4224 1.92004Z" fill="#B9C5CC"/>
<path d="M12.0014 22.0748C9.35865 22.0748 6.71594 22.0748 4.07323 22.0748C3.56521 22.0748 3.35482 21.854 3.35995 21.3334C3.41127 17.6579 6.06937 14.461 9.59982 13.851C10.0001 13.7827 10.4106 13.7458 10.8211 13.7406C11.6473 13.7248 12.4734 13.7248 13.2996 13.7406C16.6967 13.7879 19.7499 16.3539 20.4478 19.7612C20.5555 20.2976 20.5966 20.8497 20.6376 21.3965C20.6684 21.8382 20.4221 22.0801 19.9859 22.0801C17.3227 22.0748 14.6646 22.0748 12.0014 22.0748Z" fill="#B9C5CC"/>
</g>
</svg>
