<svg width="28" height="28" viewBox="0 0 28 28" fill="none" xmlns="http://www.w3.org/2000/svg">
<mask id="mask0_18_473" style="mask-type:alpha" maskUnits="userSpaceOnUse" x="0" y="0" width="28" height="28">
<rect width="28" height="28" fill="#D9D9D9"/>
</mask>
<g mask="url(#mask0_18_473)">
<path fill-rule="evenodd" clip-rule="evenodd" d="M16.2608 2.35687C16.4593 2.59329 16.494 2.94009 16.5634 3.6337C16.6952 4.9521 16.7611 5.61129 17.1506 5.87375C17.2617 5.94865 17.3867 6.00045 17.5183 6.02607C17.9792 6.11584 18.492 5.69633 19.5174 4.85731C20.0569 4.4159 20.3267 4.19519 20.6343 4.16842C20.7252 4.16051 20.8167 4.16508 20.9064 4.182C21.2098 4.23924 21.4562 4.48569 21.9491 4.97859L23.0212 6.0507C23.5142 6.54368 23.7607 6.79017 23.8179 7.09361C23.8348 7.18321 23.8394 7.2747 23.8315 7.36554C23.8047 7.67317 23.584 7.94297 23.1425 8.48256C22.3034 9.50819 21.8838 10.021 21.9736 10.482C21.9992 10.6135 22.051 10.7384 22.1258 10.8495C22.3883 11.239 23.0476 11.305 24.3662 11.4368C25.0599 11.5062 25.4068 11.5409 25.6432 11.7395C25.713 11.7981 25.7745 11.8661 25.8259 11.9414C26 12.1964 26 12.545 26 13.2421V14.7585C26 15.4554 26 15.8039 25.826 16.0589C25.7745 16.1343 25.713 16.2023 25.643 16.261C25.4067 16.4595 25.0599 16.4942 24.3664 16.5636C23.0483 16.6954 22.3893 16.7613 22.1268 17.1505C22.0518 17.2617 21.9999 17.387 21.9743 17.5187C21.8847 17.9795 22.3041 18.4921 23.1428 19.5172L23.1428 19.5172C23.5841 20.0566 23.8047 20.3262 23.8316 20.6337C23.8395 20.7247 23.8349 20.8164 23.818 20.9062C23.7607 21.2094 23.5143 21.4558 23.0216 21.9486L23.0216 21.9486L21.9492 23.0209L21.9492 23.0209C21.4563 23.5138 21.2099 23.7603 20.9065 23.8175C20.8168 23.8344 20.7253 23.839 20.6344 23.8311C20.3268 23.8043 20.057 23.5836 19.5175 23.1422C18.492 22.3031 17.9793 21.8836 17.5183 21.9734C17.3868 21.999 17.2617 22.0508 17.1506 22.1257C16.7612 22.3882 16.6953 23.0474 16.5634 24.366C16.494 25.0599 16.4593 25.4068 16.2607 25.6432C16.2021 25.713 16.1342 25.7745 16.0589 25.8259C15.8038 26 15.4552 26 14.758 26H13.2419C12.5448 26 12.1962 26 11.9412 25.8259C11.8659 25.7745 11.7979 25.713 11.7393 25.6432C11.5407 25.4067 11.506 25.0599 11.4366 24.3662C11.3048 23.0477 11.2389 22.3885 10.8494 22.126C10.7383 22.0512 10.6133 21.9994 10.4818 21.9738C10.0208 21.8839 9.50802 22.3035 8.48247 23.1426C7.94292 23.584 7.67315 23.8048 7.36554 23.8315C7.27468 23.8394 7.18315 23.8349 7.09352 23.8179C6.79011 23.7607 6.54364 23.5142 6.05069 23.0213L4.97851 21.9491C4.48565 21.4563 4.23921 21.2098 4.18196 20.9065C4.16504 20.8168 4.16047 20.7252 4.16839 20.6343C4.19517 20.3267 4.41586 20.057 4.85723 19.5175C5.69619 18.4921 6.11567 17.9794 6.02593 17.5185C6.00031 17.3869 5.9485 17.2618 5.87357 17.1507C5.6111 16.7613 4.95196 16.6954 3.63366 16.5636C2.94009 16.4942 2.59331 16.4595 2.3569 16.261C2.28701 16.2023 2.22548 16.1343 2.17403 16.0589C2 15.8039 2 15.4554 2 14.7584V13.2422C2 12.545 2 12.1963 2.17414 11.9413C2.22553 11.866 2.28697 11.7982 2.35674 11.7395C2.5932 11.5409 2.9401 11.5062 3.6339 11.4368C4.95267 11.3049 5.61205 11.239 5.8745 10.8494C5.94928 10.7384 6.00101 10.6135 6.02663 10.4821C6.11655 10.021 5.69689 9.50812 4.85759 8.4823C4.41598 7.94256 4.19518 7.67269 4.16847 7.36498C4.16059 7.27423 4.16515 7.18283 4.18202 7.09332C4.23922 6.78979 4.48576 6.54325 4.97886 6.05015L6.05082 4.97819C6.54375 4.48527 6.79021 4.2388 7.09362 4.18157C7.18326 4.16466 7.27479 4.16009 7.36567 4.168C7.67326 4.19476 7.94306 4.4155 8.48264 4.85697C9.50805 5.69595 10.0208 6.11543 10.4816 6.02574C10.6133 6.00012 10.7384 5.94829 10.8496 5.87332C11.2389 5.61085 11.3048 4.95176 11.4366 3.63359C11.506 2.94009 11.5407 2.59334 11.7392 2.35694C11.7979 2.28702 11.8659 2.22546 11.9413 2.174C12.1963 2 12.5448 2 13.2417 2H14.7582C15.4552 2 15.8038 2 16.0588 2.17405C16.1341 2.22549 16.2021 2.287 16.2608 2.35687ZM14 18.7999C16.651 18.7999 18.8 16.6509 18.8 13.9999C18.8 11.3489 16.651 9.19989 14 9.19989C11.349 9.19989 9.2 11.3489 9.2 13.9999C9.2 16.6509 11.349 18.7999 14 18.7999Z" fill="#B9C5CC"/>
</g>
</svg>
