<svg width="24" height="24" viewBox="0 0 24 24" fill="none" xmlns="http://www.w3.org/2000/svg">
<mask id="mask0_124_416" style="mask-type:alpha" maskUnits="userSpaceOnUse" x="0" y="0" width="24" height="24">
<rect width="24" height="24" fill="#D9D9D9"/>
</mask>
<g mask="url(#mask0_124_416)">
<path d="M4.51059 7.26563C3.92804 7.26563 3.28724 7.26563 2.70469 7.26563C2.06389 7.26563 1.71436 6.91502 1.71436 6.33067C1.71436 5.10353 1.71436 3.93483 1.71436 2.70769C1.71436 2.06491 2.06389 1.71429 2.70469 1.71429C3.92804 1.71429 5.09314 1.71429 6.3165 1.71429C6.9573 1.71429 7.30683 2.06491 7.30683 2.70769C7.30683 3.87639 7.30683 5.10353 7.30683 6.27224C7.30683 6.91502 6.9573 7.26563 6.3165 7.26563C5.73395 7.26563 5.09314 7.26563 4.51059 7.26563ZM3.462 3.40891C3.462 4.11014 3.462 4.81136 3.462 5.51258C4.16106 5.51258 4.86012 5.51258 5.55918 5.51258C5.55918 4.81136 5.55918 4.11014 5.55918 3.40891C4.86012 3.40891 4.16106 3.40891 3.462 3.40891Z" fill="#B9C5CC"/>
<path d="M15.7537 5.39536C13.9478 5.39536 12.0837 5.39536 10.2778 5.39536C9.81172 5.39536 9.40394 5.04475 9.34568 4.63571C9.28743 4.16823 9.63696 3.70074 10.1613 3.70074C10.2195 3.70074 10.2778 3.70074 10.336 3.70074C13.9478 3.70074 17.6179 3.70074 21.2297 3.70074C21.754 3.70074 22.1035 3.93449 22.1618 4.34353C22.2783 4.92788 21.8705 5.39536 21.288 5.4538C20.7637 5.4538 20.1811 5.4538 19.6568 5.4538C18.3752 5.39536 17.0936 5.39536 15.7537 5.39536Z" fill="#B9C5CC"/>
<path d="M15.8119 18.6604C17.6178 18.6604 19.4819 18.6604 21.2878 18.6604C21.9286 18.6604 22.3364 19.1863 22.2199 19.7122C22.1616 20.0628 21.8121 20.355 21.4043 20.4135C21.3461 20.4135 21.3461 20.4135 21.2878 20.4135C17.6178 20.4135 13.9477 20.4135 10.3359 20.4135C9.75334 20.4135 9.40381 20.0628 9.40381 19.5369C9.40381 19.011 9.81159 18.6604 10.3359 18.6604C12.1418 18.6604 13.9477 18.6604 15.8119 18.6604Z" fill="#B9C5CC"/>
<path d="M15.7539 12.8756C13.948 12.8756 12.0839 12.8756 10.2779 12.8756C9.6954 12.8756 9.28761 12.4665 9.34587 11.9406C9.34587 11.5315 9.6954 11.1809 10.1614 11.1225C10.2197 11.1225 10.2779 11.1225 10.3945 11.1225C14.0063 11.1225 17.6181 11.1225 21.2299 11.1225C21.3464 11.1225 21.4629 11.1225 21.6377 11.1809C22.0455 11.2978 22.3367 11.7068 22.2785 12.1159C22.2202 12.5834 21.8707 12.8756 21.4629 12.8756C20.5308 12.8756 19.5987 12.8756 18.6667 12.8756C17.6763 12.8756 16.686 12.8756 15.7539 12.8756Z" fill="#B9C5CC"/>
<path d="M4.04469 19.8879C4.10294 19.771 4.1612 19.7126 4.21945 19.5957C4.802 18.7776 5.3263 17.9595 5.90885 17.1414C6.14187 16.7908 6.4914 16.6739 6.84093 16.7324C7.42348 16.9077 7.6565 17.492 7.30697 18.0179C7.01569 18.4854 6.66616 18.9529 6.37489 19.4204C5.85059 20.2385 5.26804 21.0566 4.74375 21.8747C4.45247 22.2837 4.04469 22.4006 3.6369 22.1668C3.52039 22.1084 3.40388 21.9915 3.28737 21.8747C2.87959 21.2319 2.41355 20.5891 2.00576 19.9463C1.77274 19.5957 1.831 19.2451 2.06402 18.9529C2.29704 18.6607 2.70482 18.5439 2.9961 18.7192C3.17086 18.7776 3.28737 18.9529 3.40388 19.0698C3.69516 19.3035 3.81167 19.5957 4.04469 19.8879Z" fill="#B9C5CC"/>
<path d="M4.10285 12.4079C4.6854 11.5314 5.20969 10.7133 5.79224 9.83677C5.8505 9.77833 5.90875 9.66146 5.96701 9.60303C6.20003 9.25242 6.66607 9.13555 7.07385 9.36929C7.42338 9.60303 7.59815 10.0705 7.42338 10.4796C7.36513 10.538 7.30687 10.6549 7.24862 10.7133C6.43305 11.9989 5.55922 13.226 4.74365 14.5116C4.45238 14.9791 3.81158 14.9791 3.46205 14.5116C2.99601 13.8104 2.52997 13.1676 2.12218 12.4663C1.88916 12.0573 2.00567 11.5898 2.41346 11.3561C2.82124 11.1223 3.28728 11.1808 3.57856 11.5898C3.69507 11.8236 3.86983 12.0573 4.10285 12.4079Z" fill="#B9C5CC"/>
</g>
</svg>
