<svg width="28" height="28" viewBox="0 0 28 28" fill="none" xmlns="http://www.w3.org/2000/svg">
<mask id="mask0_18_470" style="mask-type:alpha" maskUnits="userSpaceOnUse" x="0" y="0" width="28" height="28">
<rect width="28" height="28" fill="#D9D9D9"/>
</mask>
<g mask="url(#mask0_18_470)">
<path d="M9.55726 15.2261C9.67509 15.7264 9.96967 16.1111 10.2839 16.4767C11.364 17.708 12.6601 18.7084 13.9956 19.7281C14.624 19.2279 15.2524 18.7662 15.8416 18.2275C16.5485 17.5733 17.2359 16.9 17.9036 16.1881C18.1393 15.938 18.2767 15.5724 18.4928 15.2261C19.0623 15.2646 19.6907 15.4185 20.2995 15.6302C23.206 16.6883 25.1306 19.5357 24.9931 22.5755C24.9734 22.9411 24.9145 23.3259 24.8163 23.6722C24.4629 24.9227 23.5202 25.5191 22.3026 25.7693C21.2814 25.9809 20.2209 26.0001 19.1801 26.0001C15.4095 26.0001 11.6389 26.0001 7.88799 25.9809C6.96498 25.9809 6.02234 25.9039 5.13861 25.6153C3.90138 25.2113 3.23368 24.3455 3.05693 23.095C2.54633 19.2087 5.53138 15.5724 9.55726 15.2261ZM17.3144 20.9979C17.2948 21.1326 17.2555 21.2288 17.2555 21.325C17.2555 21.5943 17.2555 21.8637 17.2555 22.133C17.2555 22.4793 17.2948 22.5178 17.6287 22.5178C17.9625 22.5178 18.2964 22.5178 18.6891 22.5178C18.6891 22.9796 18.6891 23.4221 18.6891 23.8646C19.1997 23.8646 19.6514 23.8646 20.162 23.8646C20.2799 23.4221 20.162 22.9796 20.2209 22.5371C20.6726 22.4793 21.144 22.5755 21.576 22.4793C21.576 21.9791 21.576 21.5366 21.576 21.0364C21.1243 21.0364 20.6726 21.0364 20.2209 21.0364C20.1424 20.5362 20.2799 20.0937 20.1228 19.6512C19.6318 19.6512 19.1605 19.6512 18.6695 19.6512C18.6695 20.1129 18.6695 20.5362 18.6695 20.9979C18.1982 20.9979 17.7858 20.9979 17.3144 20.9979Z" fill="#B9C5CC"/>
<path d="M20.0638 7.85736C19.9852 9.91596 19.3175 11.686 18.2178 13.3213C17.7661 13.9947 17.2359 14.6103 16.5878 15.1298C14.8792 16.4766 12.9939 16.4573 11.3247 15.0721C9.83215 13.8215 8.92879 12.2054 8.35927 10.4162C7.94686 9.10791 7.77012 7.7804 8.14325 6.41441C8.85023 3.77863 11.3836 1.85471 14.3883 2.00862C17.118 2.16254 19.4943 4.22114 19.946 6.91464C20.0049 7.26094 20.0245 7.60725 20.0638 7.85736Z" fill="#B9C5CC"/>
</g>
</svg>
