<svg width="24" height="24" viewBox="0 0 24 24" fill="none" xmlns="http://www.w3.org/2000/svg">
<mask id="mask0_124_404" style="mask-type:alpha" maskUnits="userSpaceOnUse" x="0" y="0" width="24" height="24">
<rect width="24" height="24" fill="#D9D9D9"/>
</mask>
<g mask="url(#mask0_124_404)">
<path d="M1.43994 20.9563C1.54263 20.5348 1.57686 20.0782 1.71378 19.6568C2.5353 17.0929 4.86295 15.5124 7.5329 15.7582C10.1344 15.969 12.1197 18.0412 12.4963 20.4997C12.5305 20.7807 12.5647 21.0617 12.5647 21.3075C12.5647 21.7992 12.3251 22.0802 11.8117 22.0802C10.4425 22.0802 9.07325 22.0802 7.70405 22.0802C5.92408 22.0802 4.10989 22.0802 2.32992 22.0802C1.91916 22.0802 1.61109 21.9748 1.43994 21.5534C1.43994 21.3778 1.43994 21.167 1.43994 20.9563Z" fill="#B9C5CC"/>
<path d="M13.1125 10.3141C12.8044 10.1385 12.4621 9.99797 12.1883 9.82236C11.6406 9.4009 11.3667 8.80382 11.3325 8.10139C11.3325 6.76675 11.3325 5.43212 11.3325 4.13261C11.3325 2.93846 12.2567 1.99017 13.4206 1.91992C13.5575 1.91992 13.6944 1.91992 13.8313 1.91992C15.9878 1.91992 18.1101 1.91992 20.2666 1.91992C21.6358 1.91992 22.56 2.86821 22.56 4.27309C22.56 5.50236 22.56 6.73163 22.56 7.92578C22.56 9.33065 21.6016 10.2789 20.2666 10.2789C19.4451 10.2789 18.5893 10.2789 17.7678 10.2789C17.6651 10.2789 17.5624 10.3141 17.4597 10.3492C16.8778 10.6653 16.3301 11.0165 15.7482 11.3677C14.6528 11.9999 13.489 11.5082 13.1467 10.2789C13.1467 10.2789 13.1467 10.2438 13.1125 10.2438C13.1467 10.2789 13.1467 10.2789 13.1125 10.3141ZM16.9463 5.5726C17.4939 5.5726 18.0416 5.5726 18.5893 5.5726C19.0343 5.5726 19.3424 5.29163 19.3081 4.87017C19.3081 4.48382 19.0001 4.20285 18.5893 4.20285C17.4939 4.20285 16.4328 4.20285 15.3374 4.20285C14.9267 4.20285 14.6186 4.48382 14.6186 4.87017C14.6186 5.25651 14.9267 5.53748 15.3374 5.53748C15.8851 5.60773 16.4328 5.5726 16.9463 5.5726ZM16.9805 6.5209C16.4328 6.5209 15.9194 6.5209 15.3717 6.5209C14.9267 6.5209 14.6186 6.80187 14.6528 7.22334C14.6528 7.60968 14.9609 7.89065 15.3717 7.89065C16.467 7.89065 17.5282 7.89065 18.6235 7.89065C19.0343 7.89065 19.3424 7.60968 19.3424 7.22334C19.3424 6.837 19.0343 6.55602 18.6235 6.55602C18.0759 6.5209 17.5282 6.5209 16.9805 6.5209Z" fill="#B9C5CC"/>
<path d="M10.7846 10.9112C10.7846 13.0537 9.07307 14.8098 6.98504 14.8098C4.897 14.8098 3.21973 13.0537 3.21973 10.9112C3.21973 8.7688 4.93123 7.0127 7.01927 7.04782C9.1073 7.0127 10.7846 8.7688 10.7846 10.9112Z" fill="#B9C5CC"/>
</g>
</svg>
