<svg width="24" height="24" viewBox="0 0 24 24" fill="none" xmlns="http://www.w3.org/2000/svg">
<path d="M1.68328 4.36656L5.05279 11.1056C5.27224 11.5445 5.38197 11.7639 5.38197 12C5.38197 12.2361 5.27224 12.4555 5.05279 12.8944L1.68328 19.6334C0.573966 21.8521 0.0193075 22.9614 0.528961 23.471C1.03861 23.9807 2.14793 23.426 4.36656 22.3167L21.4223 13.7889C22.9834 13.0083 23.7639 12.618 23.7639 12C23.7639 11.382 22.9834 10.9917 21.4223 10.2111L4.36656 1.68328C2.14793 0.573965 1.03861 0.0193075 0.528961 0.528961C0.0193075 1.03861 0.573965 2.14793 1.68328 4.36656Z" fill="white"/>
</svg>
