<svg width="28" height="28" viewBox="0 0 28 28" fill="none" xmlns="http://www.w3.org/2000/svg">
<mask id="mask0_136_668" style="mask-type:alpha" maskUnits="userSpaceOnUse" x="0" y="0" width="28" height="28">
<rect width="28" height="28" fill="#D9D9D9"/>
</mask>
<g mask="url(#mask0_136_668)">
<path d="M24.7067 2C17.5761 2 10.4383 2 3.30764 2C2.44792 2 2 2.45102 2 3.32348C2 8.87616 2 14.4288 2 19.9815C2 20.854 2.45515 21.3198 3.30042 21.3198C6.16133 21.3198 9.02225 21.3198 11.8832 21.3198H12.2299C12.1144 22.2366 11.6086 22.9168 11.0957 23.5823C10.9368 23.7967 10.6839 23.915 10.4238 23.9224C10.4238 23.9224 10.4238 23.9224 10.4166 23.9224C9.54964 23.9372 8.84886 24.573 8.71882 25.4529C8.6538 25.8965 8.73327 26 9.18119 26C11.0596 26 12.938 26 14.8163 26C16.1601 26 17.5039 26 18.8548 26C19.2233 26 19.3172 25.8891 19.2739 25.512C19.1799 24.7283 18.6453 24.122 17.894 23.9741C17.8651 23.9667 17.8362 23.9593 17.8073 23.9593C17.3377 23.8854 16.9042 23.6488 16.6225 23.2569C16.124 22.5693 15.8061 21.8595 15.7844 21.3272H24.6634C25.552 21.3272 25.9999 20.8762 25.9999 19.9741C25.9999 14.4288 25.9999 8.88355 25.9999 3.34566C26.0071 2.45841 25.5592 2 24.7067 2ZM12.1071 19.1756C12.1071 18.9538 12.2805 18.7763 12.4973 18.7763C12.714 18.7763 12.8874 18.9538 12.8874 19.1756C12.8874 19.3974 12.714 19.5749 12.4973 19.5749C12.2805 19.5749 12.1071 19.3974 12.1071 19.1756ZM13.6315 19.1756C13.6315 18.9538 13.8049 18.7763 14.0216 18.7763C14.2384 18.7763 14.4118 18.9538 14.4118 19.1756C14.4118 19.3974 14.2384 19.5749 14.0216 19.5749C13.8049 19.5749 13.6315 19.3974 13.6315 19.1756ZM15.5605 19.5749C15.3437 19.5749 15.1703 19.3974 15.1703 19.1756C15.1703 18.9538 15.3437 18.7763 15.5605 18.7763C15.7772 18.7763 15.9506 18.9538 15.9506 19.1756C15.9578 19.3974 15.7772 19.5749 15.5605 19.5749ZM23.8976 17.305H4.10956V4.13678H23.8976V17.305Z" fill="#B29785"/>
<path d="M14.0207 6.95414C14.7748 6.34053 15.5907 6.16973 16.4684 6.51766C18.0508 7.13759 18.4958 9.22514 17.3028 10.4713C16.9629 10.8319 16.8022 11.2115 16.8331 11.6986C16.8825 12.5589 16.7465 13.3939 16.3015 14.134C16.1284 14.425 15.9059 14.7034 15.6525 14.9248C15.2692 15.26 14.8737 15.1398 14.75 14.6401C14.6388 14.191 14.5893 13.7228 14.5584 13.2611C14.5275 12.7234 14.5461 12.1857 14.5399 11.648C14.5337 11.3127 14.3544 11.0913 14.0825 11.0596C13.7487 11.0217 13.5014 11.2557 13.4953 11.6353C13.4829 12.173 13.5014 12.7107 13.4767 13.2484C13.4582 13.6596 13.4211 14.0708 13.3407 14.4693C13.1924 15.1778 12.735 15.317 12.2281 14.8046C11.5729 14.1404 11.2824 13.299 11.2082 12.3754C11.1897 12.1224 11.1897 11.8694 11.1959 11.6163C11.2144 11.1672 11.0599 10.8193 10.7446 10.4966C9.44661 9.17453 10.0462 6.90986 11.8078 6.43542C12.6299 6.21401 13.3655 6.40379 14.0207 6.95414Z" fill="#B29785"/>
<path d="M21.508 9.65481H19.7058L20.4386 8.90491L20.1217 8.58063L19.0061 9.72237L18.8477 9.88451L19.0061 10.0467L20.1217 11.1884L20.4386 10.8641L19.7058 10.1108H21.508C22.0625 10.1108 22.5114 10.5702 22.5114 11.1377C22.5114 11.7052 22.0625 12.1646 21.508 12.1646H20.2801C20.158 12.1646 20.0557 12.266 20.0557 12.3943C20.0557 12.5193 20.1547 12.624 20.2801 12.624H21.508C22.31 12.624 22.957 11.9586 22.957 11.1411C22.9603 10.3169 22.31 9.65481 21.508 9.65481Z" fill="#B29785"/>
<path d="M6.57008 9.65481H8.37223L7.63949 8.90491L7.95635 8.58063L9.07196 9.72237L9.2304 9.88451L9.07196 10.0467L7.95635 11.1884L7.63949 10.8641L8.37223 10.1142H6.57008C6.01557 10.1142 5.56668 10.5736 5.56668 11.1411C5.56668 11.7086 6.01557 12.168 6.57008 12.168H7.79792C7.92004 12.168 8.02236 12.2693 8.02236 12.3977C8.02236 12.5227 7.92334 12.6274 7.79792 12.6274H6.57008C5.77132 12.6206 5.12109 11.9552 5.12109 11.1377C5.12109 10.3169 5.77132 9.65481 6.57008 9.65481Z" fill="#B29785"/>
</g>
</svg>
