<svg xmlns="http://www.w3.org/2000/svg" viewBox="0 0 288 384"><g id="Layer_2" data-name="Layer 2"><g id="Layer_1-2" data-name="Layer 1"><path d="M239,384H49A49,49,0,0,1,0,335V49A49,49,0,0,1,49,0l128.9,0C226.37,50.53,248.72,73.84,288,113.37V335A49,49,0,0,1,239,384Z" fill="#0263d1"/><polygon points="177.86 0.03 177.86 113.29 288 113.29 177.86 0.03" fill="#4e92df"/><rect x="85.14" y="182.58" width="118.95" height="17.81" rx="8.9" fill="#fff"/><rect x="85.14" y="216.08" width="118.95" height="17.81" rx="8.9" fill="#fff"/><rect x="85.14" y="250.58" width="118.95" height="17.81" rx="8.9" fill="#fff"/><rect x="85.14" y="284.1" width="84.5" height="17.81" rx="8.9" fill="#fff"/></g></g></svg>