<svg width="25" height="18" viewBox="0 0 25 18" fill="none" xmlns="http://www.w3.org/2000/svg">
<path d="M16.8611 9.00001C16.8611 11.5617 14.8788 13.5833 12.5 13.5833C10.1212 13.5833 8.13892 11.5617 8.13892 9.00001C8.13892 6.4383 10.1212 4.41667 12.5 4.41667C14.8788 4.41667 16.8611 6.4383 16.8611 9.00001Z" stroke="#B9C5CC" stroke-width="1.5"/>
<path d="M23.1675 7.84219C23.5672 8.36226 23.7671 8.6223 23.7671 9C23.7671 9.3777 23.5672 9.63774 23.1675 10.1578C21.4636 12.3745 17.3294 17 12.5 17C7.67056 17 3.53643 12.3745 1.83253 10.1578C1.43276 9.63774 1.23287 9.3777 1.23287 9C1.23287 8.6223 1.43276 8.36226 1.83253 7.84219C3.53643 5.62553 7.67056 1 12.5 1C17.3294 1 21.4636 5.62553 23.1675 7.84219Z" stroke="#B9C5CC" stroke-width="1.5"/>
</svg>
