<svg width="20" height="20" viewBox="0 0 20 20" fill="none" xmlns="http://www.w3.org/2000/svg">
<path d="M2.67962 1.76482L2.73734 1.70711C3.12786 1.31658 3.76103 1.31658 4.15155 1.70711L7.18178 4.73734C7.57231 5.12786 7.57231 5.76103 7.18178 6.15155L5.96861 7.36473C5.78829 7.54504 5.74359 7.82051 5.85763 8.04859C7.17614 10.6856 9.31438 12.8239 11.9514 14.1424C12.1795 14.2564 12.455 14.2117 12.6353 14.0314L13.8484 12.8182C14.239 12.4277 14.8721 12.4277 15.2627 12.8182L18.2929 15.8484C18.6834 16.239 18.6834 16.8721 18.2929 17.2627L18.2352 17.3204C16.1238 19.4317 12.7813 19.6693 10.3925 17.8777L8.29524 16.3048C6.55171 14.9971 5.00289 13.4483 3.69524 11.7048L2.12226 9.60746C0.330722 7.21874 0.56827 3.87617 2.67962 1.76482Z" stroke="#B9C5CC" stroke-width="1.5"/>
</svg>
